<svg width="90" height="90" viewBox="0 0 90 90" fill="none" xmlns="http://www.w3.org/2000/svg">
<path d="M58.6 0C67.6 0 72.1 0 77 1.5C82.3 3.4 86.5 7.6 88.4 12.9C90 17.8 90 22.4 90 31.4V58.6C90 67.6 90 72.1 88.5 77C86.6 82.3 82.4 86.5 77.1 88.4C72.1 90 67.6 90 58.6 90H31.4C22.4 90 17.9 90 13 88.5C7.6 86.5 3.5 82.4 1.5 77C0 72.2 0 67.7 0 58.6V31.4C0 22.4 0 17.9 1.5 13C3.5 7.7 7.6 3.5 13 1.6C17.8 -1.19209e-07 22.3 0 31.4 0H58.6Z" fill="url(#paint0_linear_5_13)"/>
<path d="M36 19.5H54C55.2 19.5 56.9 20.3 57.6 21.3L62.6 28.6C63.1 29.3 63.9 29.7 64.7 29.7H75.4C77.9 29.7 79.9 31.7 79.9 34.2V67.2C79.9 69.7 77.9 71.7 75.4 71.7H14.6C12.1 71.7 10.1 69.7 10.1 67.2V34.2C10.1 31.7 12.1 29.7 14.6 29.7H25.3C26.1 29.7 26.9 29.3 27.4 28.6L32.4 21.3C33.1 20.3 34.7 19.5 36 19.5ZM61.9 35.5C61.9 36.8 62.9 37.8 64.2 37.8C65.4 37.8 66.5 36.8 66.5 35.5C66.5 34.2 65.5 33.2 64.2 33.2C62.9 33.2 61.9 34.2 61.9 35.5ZM29.2 50.3C29.2 59.1 36.3 66.2 45 66.2C53.7 66.2 60.8 59.1 60.8 50.3C60.8 41.5 53.7 34.4 45 34.4C36.3 34.4 29.2 41.5 29.2 50.3ZM16.8 21.8H21.3C22.5 21.8 23.5 22.8 23.5 24.1V26.4H14.5V24.1C14.6 22.8 15.6 21.8 16.8 21.8ZM32.6 50.3C32.6 43.4 38.1 37.8 45 37.8C51.9 37.8 57.4 43.4 57.4 50.3C57.4 57.2 51.9 62.8 45 62.8C38.1 62.8 32.6 57.2 32.6 50.3Z" fill="#353535"/>
<path d="M61.9 35.5C61.9 36.8 62.9 37.8 64.2 37.8C65.4 37.8 66.5 36.8 66.5 35.5C66.5 34.2 65.5 33.2 64.2 33.2C62.9 33.2 61.9 34.2 61.9 35.5Z" fill="url(#paint1_linear_5_13)"/>
<defs>
<linearGradient id="paint0_linear_5_13" x1="44.98" y1="0.04" x2="44.98" y2="89.98" gradientUnits="userSpaceOnUse">
<stop stop-color="#EAEAEA"/>
<stop offset="1" stop-color="#BABEC3"/>
</linearGradient>
<linearGradient id="paint1_linear_5_13" x1="61.858" y1="35.461" x2="66.361" y2="35.461" gradientUnits="userSpaceOnUse">
<stop stop-color="#FFDB4C"/>
<stop offset="1" stop-color="#FFCD02"/>
</linearGradient>
</defs>
</svg>
