<?xml version="1.0" encoding="UTF-8"?>
<!DOCTYPE svg PUBLIC "-//W3C//DTD SVG 1.1//EN" "http://www.w3.org/Graphics/SVG/1.1/DTD/svg11.dtd">
<!-- Creator: CorelDRAW 2018 (64-Bit) -->
<svg xmlns="http://www.w3.org/2000/svg" xml:space="preserve" width="65mm" height="62mm" version="1.1" style="shape-rendering:geometricPrecision; text-rendering:geometricPrecision; image-rendering:optimizeQuality; fill-rule:evenodd; clip-rule:evenodd"
viewBox="0 0 6500 6200"
 xmlns:xlink="http://www.w3.org/1999/xlink">
 <defs>
  <style type="text/css">
   <![CDATA[
    .fil0 {fill:#0A090A}
    .fil2 {fill:#58585A}
    .fil3 {fill:#F0C487}
    .fil1 {fill:#F3F2F5}
    .fil4 {fill:#FBD5E4}
   ]]>
  </style>
 </defs>
 <g id="Layer_x0020_1">
  <metadata id="CorelCorpID_0Corel-Layer"/>
  <g id="_1954257503232">
   <path class="fil0" d="M6076.97 68.38c-253.57,-122.09 -366.14,32.84 -590.41,171.27l-1075.17 680.94c-340.8,230.53 -534.76,-139.35 -1510.97,-27.79 -899.39,102.79 -327.27,350.4 -1785.96,-583.89 -119.93,-76.81 -434.52,-314.21 -572.25,-291.19 -264.86,44.27 -135.98,500.1 -124.38,706.46 14.01,249.45 125.47,1501.04 91.61,1631 -17.76,68.22 -117.85,204.73 -156.2,278.5 -368.96,709.57 -505.4,1841.92 -131.73,2517.99 422.08,763.65 1318.52,982.96 2471.19,1018.3 1032.65,31.65 2273,52.03 3047.19,-445.34 741.99,-476.67 945.31,-1551.74 589.89,-2628.2 -344.31,-1042.81 -380.23,-235.58 -319.02,-1363.57 20.62,-379.83 140.31,-1375.72 66.21,-1664.48z"/>
   <path class="fil1" d="M2732.6 1175.39c42.79,677.44 -266.19,1183.01 -644.6,1538.68 -429.37,403.56 -925.67,586.87 -1636.54,546.04l-15.99 -108.53c-196.81,285.71 -264.64,1301.75 -5.33,1825.1 439.82,887.65 1674.17,942.99 2736.41,950.94 838.57,6.26 1878.49,-30.27 2484.1,-461.1 515.17,-366.5 619.48,-968.99 575.15,-1603.27 -15.33,-219.43 -94.33,-442.32 -103.96,-625.73 -537.39,44.38 -959.74,59.51 -1463.9,-258.86 -708.19,-447.22 -938.42,-963.65 -1015.19,-1800.62 -193.41,-99.14 -695.35,-35.91 -910.15,-2.65z"/>
   <path class="fil2" d="M3642.75 1178.04c76.77,836.97 307,1353.4 1015.19,1800.62 504.16,318.37 926.51,303.24 1463.9,258.86 -5.38,-7 -12.19,-27.5 -14.19,-22.39l-25.83 -46.02c-81.81,-167.7 -104.83,-300.41 -233.42,-506.34 -178.16,-285.32 -146.17,-286.63 -117.45,-689.18 38.8,-543.88 86.29,-1095.56 112.38,-1641.29l-1378.96 866.23c52.51,65.23 81.91,116.93 139.26,214.86 -334.22,-66.12 -587.16,-235.82 -960.88,-235.35z"/>
   <path class="fil3" d="M435.47 3151.58l15.99 108.53c710.87,40.83 1207.17,-142.48 1636.54,-546.04 378.41,-355.67 687.39,-861.24 644.6,-1538.68 -333.19,60.52 -580.69,188.46 -866.87,246.03l165.1 -221.58 -1385.45 -866.03c22.24,512.61 77.37,1026.72 102.61,1536.42 14.86,300.14 94.49,465.94 -54.68,698.71 -96.17,150.07 -220.51,380.74 -257.84,582.64z"/>
   <path class="fil4" d="M4755.07 3959.91c-160.6,61.25 -160.68,38.84 -244.84,199.12 -61.93,117.93 -64.21,264.62 -19.5,371.23 322.37,768.92 1364.95,-92.41 655.79,-554.91 -110.94,-72.37 -259.68,-65.7 -391.45,-15.44z"/>
   <path class="fil4" d="M1489.06 3933.83c-171.13,63.08 -201.93,8.44 -289.76,182.03 -275.12,543.66 245.46,750 468.68,705.61 630.94,-125.46 335.38,-1077.22 -178.92,-887.64z"/>
   <path class="fil0" d="M3192.73 4974.47c-80.12,190.45 -253.2,122.06 -214.86,323.7 193.8,5.02 122.02,-91.78 299.33,-147.36 50.48,39.12 191.54,245.68 251.44,116.26 68.01,-146.92 -182.38,-116.79 -209.97,-292.6l2.69 -185.37c121.2,-66.08 234.87,-80.3 200.34,-237.28 -154.02,-29.35 -139.86,51.75 -253.26,142.04 -204.07,-121.93 -146.53,-150.3 -297.9,-151.68 -37.05,290.64 219.64,42.53 222.19,432.29z"/>
   <path class="fil0" d="M1797.91 3764.69c63.78,-109.83 151.1,-139.94 100,-322.01 -33.24,-118.46 -160.26,-206.07 -338.42,-148.16 -207.25,67.36 -283.28,526.93 238.42,470.17z"/>
   <path class="fil0" d="M4971.14 3764.59c62.4,-107.16 150.08,-146.14 101.23,-322.4 -33.92,-122.39 -169.24,-203.24 -340.2,-147.8 -201.65,65.37 -286.38,528.4 238.97,470.2z"/>
  </g>
 </g>
</svg>
