<svg width="654" height="800" viewBox="0 0 654 800" fill="none" xmlns="http://www.w3.org/2000/svg">
<path d="M480.954 0C482.816 0 484.678 0 486.645 0C491.212 56.4177 469.678 98.5729 443.506 129.1C417.827 159.417 382.662 188.82 325.788 184.359C321.994 128.749 343.563 89.7203 369.7 59.2632C393.939 30.8787 438.378 5.62069 480.954 0Z" fill="white"/>
<path d="M653.123 587.222C653.123 587.784 653.123 588.276 653.123 588.803C637.139 637.211 614.34 678.698 586.518 717.2C561.119 752.154 529.995 799.192 474.42 799.192C426.398 799.192 394.501 768.313 345.285 767.47C293.223 766.627 264.593 793.29 216.993 800C211.548 800 206.102 800 200.763 800C165.809 794.941 137.6 767.259 117.05 742.318C56.4516 668.616 9.62418 573.416 0.912109 451.587C0.912109 439.643 0.912109 427.735 0.912109 415.791C4.60069 328.6 46.9666 257.709 103.279 223.352C132.998 205.085 173.854 189.523 219.346 196.478C238.843 199.499 258.761 206.174 276.221 212.778C292.766 219.137 313.458 230.413 333.06 229.816C346.339 229.43 359.547 222.509 372.932 217.626C412.136 203.469 450.567 187.239 501.224 194.862C562.103 204.066 605.312 231.116 632.01 272.849C580.511 305.625 539.796 355.017 546.751 439.362C552.934 515.979 597.478 560.804 653.123 587.222Z" fill="white"/>
</svg>
